<?xml version="1.0" standalone="no"?>
<!DOCTYPE svg PUBLIC "-//W3C//DTD SVG 20010904//EN"
 "http://www.w3.org/TR/2001/REC-SVG-20010904/DTD/svg10.dtd">
<svg version="1.0" xmlns="http://www.w3.org/2000/svg"
 width="325.000000pt" height="325.000000pt" viewBox="0 0 325.000000 325.000000"
 preserveAspectRatio="xMidYMid meet">

<g transform="translate(0.000000,325.000000) scale(0.100000,-0.100000)"
fill="#000000" stroke="none">
<path d="M138 3240 c-49 -15 -86 -43 -110 -84 l-23 -41 0 -1490 0 -1490 24
-41 c13 -24 41 -52 65 -65 l41 -24 802 -3 803 -2 0 620 0 620 -215 0 -215 0 0
250 0 250 215 0 215 0 0 230 c0 270 11 345 70 465 66 136 173 228 327 282 77
28 81 28 318 28 132 -1 252 -4 268 -8 l27 -7 0 -219 0 -219 -177 -4 c-310 -7
-333 -33 -333 -385 l0 -163 245 0 c189 0 245 -3 245 -12 0 -7 -14 -116 -30
-242 -17 -126 -30 -233 -30 -238 0 -4 -97 -8 -215 -8 l-215 0 0 -620 0 -621
438 3 437 3 41 24 c24 13 52 41 65 65 l24 41 0 1490 0 1490 -24 41 c-13 24
-41 52 -65 65 l-41 24 -1475 2 c-811 1 -1487 -2 -1502 -7z"/>
</g>
</svg>
