<?xml version="1.0" standalone="no"?>
<!DOCTYPE svg PUBLIC "-//W3C//DTD SVG 20010904//EN"
 "http://www.w3.org/TR/2001/REC-SVG-20010904/DTD/svg10.dtd">
<svg version="1.0" xmlns="http://www.w3.org/2000/svg"
 width="600.000000pt" height="257.000000pt" viewBox="0 0 600.000000 257.000000"
 preserveAspectRatio="xMidYMid meet">

<g transform="translate(0.000000,257.000000) scale(0.100000,-0.100000)"
fill="#000000" stroke="none">
<path d="M1293 2130 c-53 -21 -53 -23 -53 -642 0 -622 1 -631 56 -740 37 -73
117 -149 199 -189 67 -33 74 -34 185 -34 109 0 119 2 183 32 88 42 169 119
208 198 34 70 33 99 -7 136 -50 47 -115 25 -154 -52 -45 -87 -161 -148 -258
-135 -91 12 -169 75 -210 169 -9 20 -12 121 -12 352 l0 325 251 0 251 0 29 29
c37 38 39 88 5 128 l-24 28 -256 3 -256 3 0 160 c0 175 -7 205 -55 227 -30 14
-51 14 -82 2z"/>
<path d="M2525 1760 c-45 -9 -128 -40 -122 -46 2 -2 24 3 48 12 60 22 189 22
260 1 129 -39 246 -152 289 -281 20 -62 21 -77 18 -542 l-3 -479 -28 -60 c-15
-32 -40 -75 -54 -95 l-26 -35 27 25 c38 34 75 99 97 171 17 56 19 98 19 507 0
475 -2 499 -50 592 -31 60 -119 151 -178 183 -88 48 -202 66 -297 47z"/>
<path d="M3543 1759 c-44 -8 -133 -44 -133 -53 0 -3 15 1 33 9 196 82 438 -5
550 -195 45 -77 59 -155 55 -305 -3 -119 -1 -133 12 -119 19 19 26 215 11 299
-46 249 -284 413 -528 364z"/>
<path d="M4535 1757 c-44 -12 -120 -46 -104 -47 4 0 24 6 45 14 143 49 301 15
414 -90 39 -36 49 -42 59 -30 16 19 -63 89 -143 127 -75 35 -192 46 -271 26z"/>
<path d="M5185 1756 c-27 -7 -63 -20 -80 -29 -37 -20 -30 -21 21 -3 102 35
218 27 320 -24 114 -56 201 -181 223 -320 14 -85 14 -759 1 -797 l-10 -28 20
24 c19 22 20 37 20 426 0 368 -2 409 -19 464 -68 218 -279 340 -496 287z"/>
<path d="M117 1710 c-33 -26 -43 -70 -23 -107 8 -15 96 -127 195 -248 100
-121 179 -225 177 -232 -3 -6 -85 -110 -184 -230 -99 -121 -185 -229 -191
-241 -19 -35 -12 -63 23 -98 37 -37 78 -44 110 -21 9 7 95 107 189 222 95 116
177 210 184 210 6 0 89 -94 183 -210 95 -115 182 -215 194 -222 65 -37 150 29
132 103 -4 15 -92 131 -197 258 -104 127 -189 233 -189 236 0 3 53 68 116 145
303 365 301 362 248 424 -21 26 -33 31 -68 31 -51 0 -45 6 -261 -258 -129
-159 -160 -191 -170 -180 -7 7 -86 103 -175 213 -89 110 -169 206 -178 213
-24 19 -86 15 -115 -8z"/>
<path d="M4431 1469 c-17 -22 -35 -64 -41 -92 -6 -31 -12 -205 -13 -429 -2
-335 0 -376 13 -362 13 12 16 78 20 422 l5 407 27 48 c33 58 28 61 -11 6z"/>
<path d="M5093 1488 c-58 -64 -58 -60 -63 -498 -3 -223 -9 -412 -14 -420 -5
-8 2 -5 15 8 l24 23 5 407 5 407 27 48 c15 26 25 47 24 47 -1 0 -12 -10 -23
-22z"/>
<path d="M2370 1443 c-16 -25 -32 -60 -35 -77 -4 -17 -5 -132 -3 -256 3 -192
6 -230 21 -261 24 -48 71 -96 121 -122 52 -28 165 -29 214 -4 17 10 32 20 32
23 0 2 -8 1 -17 -4 -35 -18 -95 -23 -149 -12 -74 16 -131 61 -169 135 l-30 59
0 230 0 231 27 53 c34 65 27 68 -12 5z"/>
<path d="M3413 1468 c-41 -45 -56 -90 -57 -168 l-1 -75 253 -3 c220 -2 252 0
252 13 0 13 -32 15 -240 15 l-240 0 0 59 c0 64 13 112 42 154 23 33 19 35 -9
5z"/>
<path d="M3352 967 c3 -50 12 -89 29 -121 59 -119 199 -173 324 -126 41 16 27
20 -31 8 -102 -20 -216 39 -266 136 -13 24 -23 68 -26 109 -4 51 -8 67 -20 67
-12 0 -14 -13 -10 -73z"/>
<path d="M3917 928 c-15 -11 -12 -13 19 -14 45 -1 84 -40 84 -85 0 -32 -28
-94 -68 -149 l-26 -35 27 25 c36 34 97 139 97 166 0 73 -82 129 -133 92z"/>
<path d="M2655 313 c-33 -8 -71 -17 -85 -21 l-25 -6 28 -4 c31 -4 133 23 142
38 3 6 5 9 3 9 -2 -1 -30 -8 -63 -16z"/>
</g>
</svg>
